<svg width="107" height="84" viewBox="0 0 107 84" fill="none" xmlns="http://www.w3.org/2000/svg">
<g clip-path="url(#clip0_215:12)">
<path d="M78.8736 42.07L96.488 28.14C98.214 26.775 98.214 24.57 96.488 23.205L77.2804 8.01499C75.5544 6.64999 72.7661 6.64999 71.0401 8.01499L53.4258 21.945L35.8114 8.01499C34.9263 7.34999 33.8198 6.99999 32.6692 6.99999C31.5627 6.99999 30.412 7.34999 29.5712 8.01499L10.3636 23.205C8.63752 24.57 8.63752 26.775 10.3636 28.14L27.9779 42.07L10.3636 56C8.63752 57.365 8.63752 59.57 10.3636 60.935L29.5712 76.125C31.2972 77.49 34.0854 77.49 35.8114 76.125L53.4258 62.195L71.0401 76.125C71.9253 76.825 73.0317 77.14 74.1824 77.14C75.3331 77.14 76.4395 76.79 77.3246 76.125L96.5322 60.935C98.2583 59.57 98.2583 57.365 96.5322 56L78.8736 42.07ZM53.5143 31.5C55.9484 31.5 57.94 33.075 57.94 35C57.94 36.925 55.9484 38.5 53.5143 38.5C51.0801 38.5 49.0886 36.925 49.0886 35C49.0886 33.075 51.0801 31.5 53.5143 31.5ZM32.6692 38.36L16.6038 25.69L32.6692 12.985L48.6903 25.655L32.6692 38.36ZM44.6628 45.5C42.2287 45.5 40.2371 43.925 40.2371 42C40.2371 40.075 42.2287 38.5 44.6628 38.5C47.097 38.5 49.0886 40.075 49.0886 42C49.0886 43.925 47.097 45.5 44.6628 45.5ZM53.5143 52.5C51.0801 52.5 49.0886 50.925 49.0886 49C49.0886 47.075 51.0801 45.5 53.5143 45.5C55.9484 45.5 57.94 47.075 57.94 49C57.94 50.925 55.9484 52.5 53.5143 52.5ZM62.3657 38.5C64.7999 38.5 66.7914 40.075 66.7914 42C66.7914 43.925 64.7999 45.5 62.3657 45.5C59.9316 45.5 57.94 43.925 57.94 42C57.94 40.075 59.9316 38.5 62.3657 38.5ZM74.1381 71.19L58.0728 58.52L74.1381 45.815L90.1592 58.485L74.1381 71.19Z" fill="black"/>
</g>
<defs>
<clipPath id="clip0_215:12">
<rect width="106.217" height="84" fill="white" transform="translate(0.405701)"/>
</clipPath>
</defs>
</svg>
